<svg width="16" height="21" viewBox="0 0 16 21" fill="none" xmlns="http://www.w3.org/2000/svg">
<path d="M0.5 7.76594C0.5 3.73718 3.87403 0.5 8 0.5C12.126 0.5 15.5 3.73718 15.5 7.76594C15.5 10.1199 14.5269 12.2437 12.7051 13.5831C12.5794 13.6756 12.5033 13.7902 12.4767 13.9028C12.423 14.1308 12.3641 14.3918 12.3035 14.6718C12.2735 14.8103 12.1512 14.9095 12.0095 14.9095H3.99054C3.8488 14.9095 3.72649 14.8103 3.6965 14.6718C3.63588 14.3918 3.57696 14.1308 3.52325 13.9028C3.49675 13.7902 3.42064 13.6756 3.2949 13.5831C1.47313 12.2437 0.5 10.1199 0.5 7.76594Z" fill="white"/>
<path d="M4.40053 16.4095C4.21367 16.4095 4.07242 16.5786 4.10352 16.7629C4.19745 17.3194 4.26604 17.8165 4.28682 18.1599C4.34981 19.2011 5.11672 20.0588 6.14223 20.2803L6.33821 20.3227C7.43262 20.5591 8.56738 20.5591 9.66179 20.3227L9.85777 20.2803C10.8833 20.0588 11.6502 19.2011 11.7132 18.1599C11.734 17.8165 11.8026 17.3194 11.8965 16.7629C11.9276 16.5786 11.7863 16.4095 11.5995 16.4095H4.40053Z" fill="white"/>
</svg>
