<svg width="19" height="18" viewBox="0 0 19 18" fill="none" xmlns="http://www.w3.org/2000/svg">
<path fill-rule="evenodd" clip-rule="evenodd" d="M1.55627 13.875C-0.307687 10.6465 0.798471 6.51826 4.02695 4.6543L10.9551 0.654297C13.227 -0.657379 16.1321 0.121028 17.4438 2.39292C18.7554 4.66481 17.977 7.56986 15.7051 8.88154L8.65323 12.953C7.33792 13.7124 5.65605 13.2617 4.89666 11.9464C4.13727 10.6311 4.58792 8.94922 5.90323 8.18983L12.7077 4.26126C13.0664 4.05415 13.5251 4.17706 13.7322 4.53577C13.9393 4.89449 13.8164 5.35319 13.4577 5.56029L6.65323 9.48887C6.05536 9.83404 5.85052 10.5985 6.1957 11.1964C6.54087 11.7943 7.30536 11.9991 7.90323 11.6539L14.9551 7.5825C16.5096 6.68504 17.0422 4.69737 16.1447 3.14292C15.2473 1.58847 13.2596 1.05587 11.7051 1.95333L4.77695 5.95334C2.26591 7.40308 1.40557 10.6139 2.85531 13.125C4.30506 15.636 7.51591 16.4963 10.0269 15.0466L16.7077 11.1895C17.0664 10.9824 17.5251 11.1053 17.7322 11.464C17.9393 11.8227 17.8164 12.2814 17.4577 12.4885L10.7769 16.3456C7.54847 18.2096 3.42024 17.1034 1.55627 13.875Z" fill="#F9F9F9"/>
</svg>
