<svg width="19" height="25" viewBox="0 0 19 25" fill="none" xmlns="http://www.w3.org/2000/svg">
<path d="M2.99379 0.647151L4.67446 0.140552C6.257 -0.336465 7.94782 0.434439 8.62554 1.94198L9.67175 4.26925C10.2494 5.55422 9.945 7.06436 8.91463 8.02518L7.08709 9.72939C7.06451 9.75045 7.04597 9.77547 7.03239 9.80323C6.84124 10.1939 7.1309 11.2378 8.04165 12.8153C9.06816 14.5933 9.86158 15.2968 10.228 15.1876L12.6271 14.4541C13.974 14.0424 15.4336 14.5334 16.2578 15.6756L17.7436 17.7348C18.7082 19.0717 18.5348 20.9161 17.3378 22.0496L16.0599 23.2598C15.1573 24.1147 13.8933 24.4735 12.6762 24.2205C9.11497 23.4801 5.92432 20.6123 3.07746 15.6814C0.227795 10.7456 -0.659423 6.54505 0.485128 3.08889C0.873865 1.91504 1.80986 1.00402 2.99379 0.647151ZM3.43211 2.10131C2.72175 2.31543 2.16016 2.86205 1.92691 3.56636C0.940716 6.54435 1.73956 10.3265 4.39277 14.922C7.04345 19.5131 9.91654 22.0955 12.9853 22.7335C13.7156 22.8853 14.474 22.67 15.0156 22.1571L16.2934 20.9469C16.938 20.3365 17.0314 19.3434 16.512 18.6235L15.0261 16.5643C14.5824 15.9492 13.7964 15.6848 13.0711 15.9066L10.667 16.6416C9.33636 17.0382 8.08574 15.9292 6.72634 13.5747C5.57552 11.5814 5.17602 10.1417 5.66811 9.1358C5.76321 8.94141 5.8931 8.7661 6.05133 8.61858L7.87883 6.91441C8.43363 6.39704 8.59755 5.58389 8.28651 4.89198L7.24029 2.56471C6.87536 1.75296 5.96492 1.33786 5.11278 1.59472L3.43211 2.10131Z" fill="#999999"/>
<path d="M3.43211 2.10131C2.72175 2.31543 2.16016 2.86205 1.92691 3.56636C0.940716 6.54435 1.73956 10.3265 4.39277 14.922C7.04345 19.5131 9.91654 22.0955 12.9853 22.7335C13.7156 22.8853 14.474 22.67 15.0156 22.1571L16.2934 20.9469C16.938 20.3365 17.0314 19.3434 16.512 18.6235L15.0261 16.5643C14.5824 15.9492 13.7964 15.6848 13.0711 15.9066L10.667 16.6416C9.33636 17.0382 8.08574 15.9292 6.72634 13.5747C5.57552 11.5814 5.17602 10.1417 5.66811 9.1358C5.76321 8.94141 5.8931 8.7661 6.05133 8.61858L7.87883 6.91441C8.43363 6.39704 8.59755 5.58389 8.28651 4.89198L7.24029 2.56471C6.87536 1.75296 5.96492 1.33786 5.11278 1.59472L3.43211 2.10131Z" fill="#999999"/>
</svg>
