<svg width="21" height="22" viewBox="0 0 21 22" fill="none" xmlns="http://www.w3.org/2000/svg">
<path d="M14.2582 0.375C14.424 0.375 14.583 0.440848 14.7002 0.558058L18.2357 4.09359C18.4798 4.33767 18.4798 4.7334 18.2357 4.97748L6.74524 16.468C6.66672 16.5465 6.56869 16.6027 6.46125 16.6307L1.67572 17.8807C1.46103 17.9368 1.23272 17.8749 1.07582 17.718C0.918925 17.5611 0.856976 17.3327 0.913051 17.1181L2.16305 12.3325C2.19111 12.2251 2.2473 12.1271 2.32582 12.0485L13.8163 0.558058C13.9335 0.440848 14.0925 0.375 14.2582 0.375Z" fill="white"/>
<path d="M1 20.0625C0.482233 20.0625 0.0625 20.4822 0.0625 21C0.0625 21.5178 0.482233 21.9375 1 21.9375H19.75C20.2678 21.9375 20.6875 21.5178 20.6875 21C20.6875 20.4822 20.2678 20.0625 19.75 20.0625H1Z" fill="white"/>
</svg>
