<svg width="24" height="25" viewBox="0 0 24 25" fill="none" xmlns="http://www.w3.org/2000/svg">
<path fill-rule="evenodd" clip-rule="evenodd" d="M23.8187 4.26969C24.0589 4.63358 24.0189 5.12809 23.6986 5.44845L12.2081 16.9389C12.0903 17.0567 11.9432 17.141 11.7821 17.1831L6.99655 18.4331C6.84047 18.4739 6.67958 18.473 6.52842 18.4346C6.36771 18.3937 6.21799 18.3102 6.09672 18.1889C5.86138 17.9536 5.76846 17.6111 5.85257 17.2891L7.10257 12.5036C7.1394 12.3625 7.20852 12.2233 7.30413 12.114L18.8372 0.587087C18.9381 0.486133 19.0598 0.410575 19.1921 0.364539C19.2902 0.330405 19.3942 0.3125 19.5001 0.3125C19.7487 0.3125 19.9872 0.411272 20.163 0.587087L23.6986 4.12262C23.7443 4.16839 23.7844 4.2177 23.8187 4.26969ZM21.7098 4.78553L19.5001 2.57583L8.8524 13.2235L8.07117 16.2145L11.0621 15.4332L21.7098 4.78553Z" fill="#478ECC"/>
<path d="M21.5518 18.9504C21.8936 16.0284 22.0023 13.086 21.878 10.151C21.8721 10.0105 21.9249 9.87373 22.0244 9.77427L23.2535 8.54511C23.4047 8.39399 23.6629 8.48993 23.677 8.70318C23.9082 12.1902 23.8205 15.6932 23.4141 19.1682C23.1184 21.6964 21.088 23.6776 18.5729 23.9587C14.2397 24.443 9.76054 24.443 5.42732 23.9587C2.91225 23.6776 0.88183 21.6964 0.586139 19.1682C0.0679667 14.7378 0.0679666 10.2622 0.586139 5.83179C0.88183 3.30362 2.91225 1.32236 5.42732 1.04126C8.7145 0.673873 12.0857 0.585186 15.4134 0.775202C15.6279 0.787448 15.7257 1.04697 15.5738 1.19887L14.3331 2.43956C14.2347 2.53793 14.0998 2.59076 13.9608 2.58607C11.1777 2.4922 8.3758 2.5984 5.63558 2.90466C3.97295 3.09049 2.64109 4.4025 2.44844 6.0496C1.9472 10.3353 1.9472 14.6647 2.44844 18.9504C2.64109 20.5975 3.97295 21.9095 5.63558 22.0953C9.83039 22.5642 14.1699 22.5642 18.3647 22.0953C20.0273 21.9095 21.3592 20.5975 21.5518 18.9504Z" fill="#478ECC"/>
</svg>
