<svg width="15" height="20" viewBox="0 0 15 20" fill="none" xmlns="http://www.w3.org/2000/svg">
<path d="M11.438 1.27025C8.70324 0.842044 5.9016 0.872255 3.17674 1.35933C2.18126 1.53728 1.3953 2.31147 1.20604 3.30634C0.339016 7.86405 0.339498 12.5444 1.20746 17.1019L1.56084 18.9575C1.6698 19.5296 2.37114 19.7512 2.78905 19.3455L6.77131 15.4798C7.1533 15.109 7.75884 15.1025 8.14873 15.465L12.2134 19.2439C12.64 19.6405 13.3364 19.4038 13.433 18.8294L13.7463 16.9667C14.5158 12.3915 14.4153 7.71225 13.4502 3.1743C13.2395 2.18374 12.4371 1.42669 11.438 1.27025Z" fill="#F9F9F9"/>
</svg>
