<svg width="20" height="19" viewBox="0 0 20 19" fill="none" xmlns="http://www.w3.org/2000/svg">
<path d="M11.0388 0.581892C10.4393 0.269012 9.61589 0.264312 9.01222 0.576081C6.43359 1.90782 4.09691 3.43365 2.05094 5.12426C1.77811 5.3497 1.59757 5.66523 1.60066 6.02588C1.60373 6.3853 1.78838 6.69732 2.06031 6.91966C4.08981 8.5791 6.42912 10.1067 8.96089 11.4281C9.56037 11.741 10.3838 11.7457 10.9875 11.4339C13.5661 10.1022 15.9028 8.57634 17.9488 6.88574C18.2216 6.6603 18.4021 6.34477 18.399 5.98411C18.396 5.62469 18.2113 5.31268 17.9394 5.09033C15.9099 3.43089 13.5706 1.90327 11.0388 0.581892Z" fill="white"/>
<path d="M18.9579 10.7314C19.3092 10.512 19.4162 10.0494 19.1969 9.69803C18.9775 9.34667 18.5149 9.23966 18.1635 9.45902L12.0563 13.2719C11.5122 13.6116 10.7731 13.8009 9.99968 13.801C9.22623 13.801 8.48704 13.6117 7.94289 13.2721L1.90256 9.50239C1.55116 9.28308 1.08852 9.39016 0.869215 9.74156C0.649911 10.093 0.756991 10.5556 1.10839 10.7749L7.14872 14.5446C7.97758 15.0619 9.00583 15.301 9.99976 15.301C10.9937 15.3009 12.0219 15.0617 12.8506 14.5443L18.9579 10.7314Z" fill="white"/>
<path d="M18.958 14.4861C19.3093 14.2667 19.4162 13.804 19.1968 13.4527C18.9774 13.1013 18.5148 12.9944 18.1634 13.2138L12.8745 16.5167C12.1017 16.9993 11.0678 17.2602 9.99963 17.2602C8.93144 17.2603 7.89751 16.9995 7.1245 16.517L1.90263 13.2572C1.55127 13.0378 1.08861 13.1448 0.869263 13.4962C0.649916 13.8476 0.756941 14.3102 1.10831 14.5296L6.33017 17.7894C7.38795 18.4497 8.71101 18.7603 9.99972 18.7602C11.2884 18.7602 12.6114 18.4494 13.6691 17.7889L18.958 14.4861Z" fill="white"/>
</svg>
