<svg width="180" height="180" viewBox="0 0 180 180" fill="none" xmlns="http://www.w3.org/2000/svg">
<path d="M150.561 35.9074C150.973 35.5381 151.303 35.0848 151.527 34.5777C151.751 34.0706 151.864 33.5215 151.859 32.9672C151.853 32.4129 151.729 31.8663 151.495 31.3637C151.261 30.8612 150.923 30.4145 150.502 30.0535C150.059 29.6734 149.619 29.2953 149.183 28.9193C145.854 26.0569 142.412 23.0932 138.812 20.565C111.307 1.20661 82.7276 1.0977 53.8733 11.3642C27.7484 20.6529 10.9715 39.2361 4.00143 66.5875C-3.77376 97.146 3.03482 124.105 24.2522 146.724C24.8041 147.309 25.3675 147.893 25.9301 148.451C37.3277 159.85 51.5239 166.886 62.7721 171.782C67.6001 173.892 92.3722 176.452 99.0749 175.453C138.907 169.505 165.119 147.039 174.25 109.453C175.992 102.091 176.861 94.5489 176.835 86.9832C176.796 79.0376 175.46 71.1517 172.879 63.6366C172.691 63.0744 172.382 62.5607 171.972 62.1323C171.562 61.7039 171.064 61.3713 170.51 61.1583C169.957 60.9454 169.363 60.8574 168.772 60.9005C168.181 60.9437 167.607 61.117 167.091 61.4081L166.983 61.4697C166.162 61.9395 165.532 62.6829 165.205 63.5698C164.877 64.4566 164.872 65.4304 165.189 66.3209C167.519 72.7805 168.707 79.596 168.699 86.4627C168.619 94.7006 167.504 102.896 165.38 110.856C159.086 133.729 144.04 150.401 119.382 161.804C94.3138 173.806 58.364 161.672 48.799 155.357C38.2268 148.129 28.9761 139.138 21.4514 128.775C9.65035 112.066 7.00277 88.0504 13.3442 66.0948C16.3117 55.9577 21.498 46.6078 28.527 38.7235C35.556 30.8392 44.2514 24.618 53.9829 20.5109C79.2997 9.98974 104.702 8.13382 129.478 23.8908C132.8 26.0058 141.27 32.6567 145.551 36.0531C146.269 36.6228 147.166 36.9202 148.082 36.8928C148.999 36.8653 149.875 36.5146 150.558 35.9028L150.561 35.9074Z" fill="white"/>
<path d="M79.941 110.834C80.0596 110.834 80.0207 110.834 80.0207 110.834C107.376 82.2552 143.512 56.2365 173.647 30.7058C175.16 29.4239 177.878 28.5168 178.604 29.3993C179.082 30.0516 179.384 30.8154 179.48 31.6177C179.577 32.42 179.466 33.2338 179.159 33.981C178.451 35.8384 176.725 37.4291 175.16 38.8195C165.819 47.1196 156.217 55.1337 147.041 63.6052C127.859 81.3201 108.8 99.1668 89.8627 117.145C81.5647 125.006 78.3711 125.324 70.7355 116.925C65.7093 111.393 50.5405 92.75 45.8951 86.8759C45.2388 85.9629 44.6542 85.0003 44.1466 83.9969C43.0988 82.1388 42.4138 80.0914 44.4965 78.6508C46.8166 77.0465 48.463 78.7206 49.8383 80.4639C51.23 82.2289 53.9998 85.2353 53.9998 85.2353C53.9998 85.2353 74.9426 105.359 79.941 110.834Z" fill="white"/>
</svg>
