<svg width="28" height="29" viewBox="0 0 28 29" fill="none" xmlns="http://www.w3.org/2000/svg">
<path fill-rule="evenodd" clip-rule="evenodd" d="M27.3334 12.3334C27.3334 7.65181 27.3334 5.31104 26.2099 3.62955C25.7235 2.90162 25.0985 2.27661 24.3705 1.79022C22.6891 0.666687 20.3483 0.666687 15.6667 0.666687H12.3334C7.65187 0.666687 5.3111 0.666687 3.62961 1.79022C2.90168 2.27661 2.27667 2.90162 1.79028 3.62955C0.666748 5.31104 0.666748 7.65181 0.666748 12.3334C0.666748 17.0149 0.666748 19.3557 1.79028 21.0372C2.27667 21.7651 2.90168 22.3901 3.62961 22.8765C5.09853 23.858 7.07058 23.9821 10.6667 23.9978V24L12.5094 27.6853C13.1236 28.9137 14.8766 28.9137 15.4908 27.6853L17.3334 24V23.9978C20.9296 23.9821 22.9016 23.858 24.3705 22.8765C25.0985 22.3901 25.7235 21.7651 26.2099 21.0372C27.3334 19.3557 27.3334 17.0149 27.3334 12.3334ZM9.00008 8.00002C8.4478 8.00002 8.00008 8.44774 8.00008 9.00002C8.00008 9.55231 8.4478 10 9.00008 10H19.0001C19.5524 10 20.0001 9.55231 20.0001 9.00002C20.0001 8.44774 19.5524 8.00002 19.0001 8.00002H9.00008ZM9.00008 14.6667C8.4478 14.6667 8.00008 15.1144 8.00008 15.6667C8.00008 16.219 8.4478 16.6667 9.00008 16.6667H14.0001C14.5524 16.6667 15.0001 16.219 15.0001 15.6667C15.0001 15.1144 14.5524 14.6667 14.0001 14.6667H9.00008Z" fill="#478ECC"/>
</svg>
