<svg width="23" height="16" viewBox="0 0 23 16" fill="none" xmlns="http://www.w3.org/2000/svg">
<path fill-rule="evenodd" clip-rule="evenodd" d="M1.07518 14.0238C0.798202 13.7365 0.733379 13.3055 0.913635 12.9495L1.79051 11.2178C3.86585 7.11924 8.06954 4.53594 12.6635 4.53594H13.0947C13.1261 3.85297 13.1667 3.17031 13.2164 2.48815L13.3012 1.32485C13.3702 0.378827 14.425 -0.150007 15.2243 0.36072C17.8464 2.03617 20.1259 4.19503 21.9413 6.72223L22.5114 7.5159C22.7462 7.84275 22.7462 8.28297 22.5114 8.60981L21.9413 9.40349C20.1259 11.9307 17.8464 14.0895 15.2243 15.765C14.425 16.2757 13.3702 15.7469 13.3012 14.8009L13.2164 13.6376C13.157 12.8229 13.1107 12.0076 13.0774 11.1918C10.3901 11.1142 7.70608 11.6566 5.23937 12.7951L2.14289 14.2242C1.78059 14.3914 1.35216 14.311 1.07518 14.0238ZM3.84799 11.3722L4.45364 11.0927C7.46757 9.70162 10.7745 9.11436 14.0559 9.36639C14.5338 9.40309 14.907 9.79435 14.9212 10.2734C14.953 11.3501 15.0081 12.4263 15.0865 13.5012L15.0932 13.5943C17.1476 12.1422 18.9479 10.3568 20.4185 8.30958L20.5957 8.06286L20.4185 7.81614C18.9479 5.76896 17.1476 3.98347 15.0932 2.5314L15.0865 2.62447C15.0165 3.58398 14.9651 4.5445 14.9322 5.5055C14.915 6.01049 14.5006 6.41094 13.9953 6.41094L12.6635 6.41094C9.0419 6.41094 5.70694 8.30832 3.84799 11.3722Z" fill="white"/>
</svg>
