<svg width="24" height="24" viewBox="0 0 24 24" fill="none" xmlns="http://www.w3.org/2000/svg">
<path fill-rule="evenodd" clip-rule="evenodd" d="M18.7505 10.9999L18.7443 11.2432L18.7505 11.4999L18.7446 11.7448L18.7504 11.9999L18.5617 20.2532C18.5383 21.2803 17.7571 22.1309 16.7357 22.2415C13.5879 22.5824 10.4125 22.5824 7.26477 22.2415C6.24337 22.1309 5.46219 21.2803 5.43871 20.2532L5.25003 11.9999L5.2559 11.7431L5.25005 11.4999L5.2562 11.2442L5.25 10.9999L5.4187 4.35845C5.41982 4.31456 5.42194 4.27091 5.42506 4.22752L5.43618 3.76535C5.46161 2.70864 6.26868 1.83562 7.32014 1.72745C7.40765 1.71845 7.49517 1.7097 7.58272 1.7012C7.70145 1.67361 7.8232 1.65348 7.94747 1.64137C10.6429 1.37866 13.3576 1.37866 16.053 1.64137C16.1773 1.65348 16.299 1.6736 16.4177 1.70119C16.5053 1.70969 16.5929 1.71844 16.6804 1.72745C17.7319 1.83562 18.5389 2.70864 18.5644 3.76535L18.5755 4.22857C18.5786 4.27161 18.5807 4.31491 18.5818 4.35845L18.7505 10.9999ZM16.0002 17.7498C16.4145 17.7498 16.7502 17.4141 16.7502 16.9998C16.7502 16.5856 16.4145 16.2498 16.0002 16.2498H8.00024C7.58603 16.2498 7.25024 16.5856 7.25024 16.9998C7.25024 17.4141 7.58603 17.7498 8.00024 17.7498H16.0002ZM12.0002 21.6999C12.8287 21.6999 13.5002 21.0283 13.5002 20.1999C13.5002 19.3715 12.8287 18.6999 12.0002 18.6999C11.1718 18.6999 10.5002 19.3715 10.5002 20.1999C10.5002 21.0283 11.1718 21.6999 12.0002 21.6999Z" fill="white"/>
</svg>
