<svg width="22" height="20" viewBox="0 0 22 20" fill="none" xmlns="http://www.w3.org/2000/svg">
<path fill-rule="evenodd" clip-rule="evenodd" d="M0.455322 9.99995C0.455322 10.5188 0.719677 10.994 1.24839 11.9445L2.80022 14.7341L4.44022 17.4729C4.99897 18.406 5.27835 18.8725 5.72768 19.1319C6.17701 19.3914 6.72074 19.4 7.8082 19.4174L11 19.4683L14.1919 19.4174H14.1919C15.2793 19.4 15.8231 19.3914 16.2724 19.1319C16.7217 18.8725 17.0011 18.406 17.5598 17.4729L19.1999 14.7341L20.7517 11.9445C21.2804 10.994 21.5447 10.5188 21.5447 9.99995C21.5447 9.48111 21.2804 9.00589 20.7517 8.05545L19.1999 5.26578L17.5598 2.52703C17.0011 1.59393 16.7217 1.12738 16.2724 0.86796C15.8231 0.608539 15.2793 0.599867 14.1919 0.582523L11 0.531616L7.8082 0.582523C6.72074 0.599867 6.17701 0.608539 5.72768 0.86796C5.27835 1.12738 4.99897 1.59393 4.44022 2.52702L4.44022 2.52703L2.80022 5.26578L1.24839 8.05545C0.719677 9.00589 0.455322 9.48111 0.455322 9.99995ZM11 13.2499C12.795 13.2499 14.25 11.7949 14.25 9.99995C14.25 8.20502 12.795 6.74995 11 6.74995C9.20511 6.74995 7.75004 8.20502 7.75004 9.99995C7.75004 11.7949 9.20511 13.2499 11 13.2499Z" fill="#999999"/>
</svg>
